<mxfile host="www.draw.io" modified="2020-01-15T02:00:58.005Z" agent="Mozilla/5.0 (Windows NT 10.0; WOW64) AppleWebKit/537.36 (KHTML, like Gecko) Chrome/74.0.3729.131 Safari/537.36" etag="POx2B00EyvrqdThyRdIO" version="12.5.3" type="github">
  <diagram id="bgQSBVd5bKTp2rNxC6un" name="Page-1">
    <mxGraphModel dx="1360" dy="802" grid="1" gridSize="10" guides="1" tooltips="1" connect="1" arrows="1" fold="1" page="1" pageScale="1" pageWidth="3300" pageHeight="4681" math="0" shadow="0">
      <root>
        <mxCell id="0"/>
        <mxCell id="1" parent="0"/>
        <mxCell id="zs5KtHsANHAHN5NYuHnN-15" style="edgeStyle=orthogonalEdgeStyle;rounded=0;orthogonalLoop=1;jettySize=auto;html=1;exitX=0.5;exitY=1;exitDx=0;exitDy=0;entryX=0.5;entryY=0;entryDx=0;entryDy=0;" edge="1" parent="1" source="zs5KtHsANHAHN5NYuHnN-8" target="zs5KtHsANHAHN5NYuHnN-13">
          <mxGeometry relative="1" as="geometry"/>
        </mxCell>
        <mxCell id="zs5KtHsANHAHN5NYuHnN-8" value="" style="rounded=1;whiteSpace=wrap;html=1;" vertex="1" parent="1">
          <mxGeometry x="70" y="170" width="360" height="240" as="geometry"/>
        </mxCell>
        <mxCell id="zs5KtHsANHAHN5NYuHnN-1" value="开发包" style="rounded=1;whiteSpace=wrap;html=1;" vertex="1" parent="1">
          <mxGeometry x="100" y="200" width="120" height="60" as="geometry"/>
        </mxCell>
        <mxCell id="zs5KtHsANHAHN5NYuHnN-2" value="测试包" style="rounded=1;whiteSpace=wrap;html=1;" vertex="1" parent="1">
          <mxGeometry x="280" y="200" width="120" height="60" as="geometry"/>
        </mxCell>
        <mxCell id="zs5KtHsANHAHN5NYuHnN-3" value="合并配置文件&lt;br&gt;新的测试包" style="rounded=1;whiteSpace=wrap;html=1;" vertex="1" parent="1">
          <mxGeometry x="180" y="330" width="120" height="60" as="geometry"/>
        </mxCell>
        <mxCell id="zs5KtHsANHAHN5NYuHnN-4" value="" style="endArrow=classic;html=1;entryX=0.25;entryY=0;entryDx=0;entryDy=0;exitX=0.5;exitY=1;exitDx=0;exitDy=0;" edge="1" parent="1" source="zs5KtHsANHAHN5NYuHnN-1" target="zs5KtHsANHAHN5NYuHnN-3">
          <mxGeometry width="50" height="50" relative="1" as="geometry">
            <mxPoint x="90" y="350" as="sourcePoint"/>
            <mxPoint x="140" y="300" as="targetPoint"/>
          </mxGeometry>
        </mxCell>
        <mxCell id="zs5KtHsANHAHN5NYuHnN-5" value="" style="endArrow=classic;html=1;entryX=0.75;entryY=0;entryDx=0;entryDy=0;exitX=0.5;exitY=1;exitDx=0;exitDy=0;" edge="1" parent="1" source="zs5KtHsANHAHN5NYuHnN-2" target="zs5KtHsANHAHN5NYuHnN-3">
          <mxGeometry width="50" height="50" relative="1" as="geometry">
            <mxPoint x="310" y="480" as="sourcePoint"/>
            <mxPoint x="360" y="430" as="targetPoint"/>
          </mxGeometry>
        </mxCell>
        <mxCell id="zs5KtHsANHAHN5NYuHnN-10" style="edgeStyle=orthogonalEdgeStyle;rounded=0;orthogonalLoop=1;jettySize=auto;html=1;exitX=0.5;exitY=1;exitDx=0;exitDy=0;entryX=0.5;entryY=0;entryDx=0;entryDy=0;" edge="1" parent="1" source="zs5KtHsANHAHN5NYuHnN-7" target="zs5KtHsANHAHN5NYuHnN-8">
          <mxGeometry relative="1" as="geometry"/>
        </mxCell>
        <mxCell id="zs5KtHsANHAHN5NYuHnN-7" value="测试环境机器停止服务" style="rounded=1;whiteSpace=wrap;html=1;" vertex="1" parent="1">
          <mxGeometry x="190" y="60" width="120" height="60" as="geometry"/>
        </mxCell>
        <mxCell id="zs5KtHsANHAHN5NYuHnN-11" value="合并配置文件，替换部署包" style="text;html=1;strokeColor=none;fillColor=none;align=center;verticalAlign=middle;whiteSpace=wrap;rounded=0;" vertex="1" parent="1">
          <mxGeometry x="90" y="350" width="70" height="50" as="geometry"/>
        </mxCell>
        <mxCell id="zs5KtHsANHAHN5NYuHnN-12" value="&lt;div style=&quot;text-align: left&quot;&gt;&lt;span&gt;合并配置文件原则：&lt;/span&gt;&lt;/div&gt;&lt;div style=&quot;text-align: left&quot;&gt;&lt;span&gt;1. 测试环境中有的配置项，取测试环境的值；&lt;/span&gt;&lt;/div&gt;&lt;div style=&quot;text-align: left&quot;&gt;&lt;span&gt;2.&amp;nbsp;开发包中新增加的配置项，合并到测试环境中相应的配置文件中；&lt;/span&gt;&lt;/div&gt;&lt;div style=&quot;text-align: left&quot;&gt;&lt;span&gt;3.&amp;nbsp;开发包中新增加的配置文件，增加到测试环境中相对应的目录下；&lt;/span&gt;&lt;/div&gt;" style="rounded=1;whiteSpace=wrap;html=1;" vertex="1" parent="1">
          <mxGeometry x="460" y="50" width="230" height="130" as="geometry"/>
        </mxCell>
        <mxCell id="zs5KtHsANHAHN5NYuHnN-13" value="重启测试环境服务" style="rounded=1;whiteSpace=wrap;html=1;" vertex="1" parent="1">
          <mxGeometry x="190" y="470" width="120" height="60" as="geometry"/>
        </mxCell>
      </root>
    </mxGraphModel>
  </diagram>
</mxfile>
